<svg width="500" height="500" viewBox="0 0 500 500" fill="none" xmlns="http://www.w3.org/2000/svg">
<rect width="500" height="500" rx="250" fill="white"/>
<path d="M269.346 283.675L264.642 324.809C260.681 359.44 291.256 389.423 321.496 371.787C351.771 354.131 339.616 314.07 307.431 300.149L269.346 283.675Z" fill="black"/>
<path d="M392 249.5C392 214.609 350.853 204.16 322.637 224.907L289.192 249.5L322.637 274.093C350.853 294.84 392 284.391 392 249.5Z" fill="black"/>
<path d="M269.346 215.325L307.431 198.851C339.616 184.93 351.771 144.869 321.496 127.213C291.256 109.577 260.681 139.56 264.642 174.191L269.346 215.325Z" fill="black"/>
<path d="M229.654 215.325L234.358 174.191C238.319 139.56 207.744 109.577 177.504 127.213C147.229 144.869 159.384 184.93 191.569 198.851L229.654 215.325Z" fill="black"/>
<path d="M107 249.5C107 214.609 148.147 204.16 176.363 224.907L209.808 249.5L176.363 274.093C148.147 294.84 107 284.391 107 249.5Z" fill="black"/>
<path d="M229.654 283.675L191.569 300.149C159.384 314.07 147.229 354.131 177.504 371.787C207.744 389.423 238.319 359.44 234.358 324.809L229.654 283.675Z" fill="black"/>
</svg>
