<svg width="228" height="20" viewBox="0 0 228 20" fill="none" xmlns="http://www.w3.org/2000/svg">
<path d="M12.651 12.6804L12.2844 15.9066C11.9758 18.6228 14.3584 20.9743 16.7149 19.5912C19.0741 18.2064 18.1269 15.0643 15.6188 13.9724L12.651 12.6804Z" fill="black"/>
<path d="M22.209 10C22.209 7.26347 19.0026 6.4439 16.8038 8.07116L14.1976 10L16.8038 11.9288C19.0026 13.5561 22.209 12.7365 22.209 10Z" fill="black"/>
<path d="M12.651 7.3196L15.6188 6.02756C18.1269 4.93567 19.0741 1.79361 16.7149 0.408837C14.3584 -0.97433 11.9758 1.37722 12.2844 4.09344L12.651 7.3196Z" fill="black"/>
<path d="M9.55796 7.3196L9.92457 4.09344C10.2332 1.37722 7.85063 -0.97433 5.49414 0.408837C3.13491 1.79361 4.08209 4.93567 6.59016 6.02756L9.55796 7.3196Z" fill="black"/>
<path d="M0 10C0 7.26347 3.20644 6.4439 5.40518 8.07116L8.01141 10L5.40518 11.9288C3.20644 13.5561 0 12.7365 0 10Z" fill="black"/>
<path d="M9.55796 12.6804L6.59016 13.9724C4.0821 15.0643 3.13491 18.2064 5.49414 19.5912C7.85063 20.9743 10.2332 18.6228 9.92457 15.9066L9.55796 12.6804Z" fill="black"/>
<path d="M33.4843 17.8723V4.55319H28.1884V2.3617H41.2575V4.55319H36.0256V17.8723H33.4843Z" fill="black"/>
<path d="M41.5174 17.8723V5.82979H43.7597L43.9092 7.6383C44.5498 6.33333 45.5179 5.68085 46.8134 5.68085C47.2548 5.68085 47.5893 5.7234 47.8171 5.80851V8.14894H47.6676C47.4256 8.06383 47.1337 8.02128 46.7921 8.02128C45.9948 8.02128 45.3542 8.25532 44.8701 8.7234C44.3861 9.1773 44.1014 9.80142 44.0159 10.5957V17.8723H41.5174Z" fill="black"/>
<path d="M53.4314 18.0851C52.0789 18.0851 51.0326 17.7163 50.2923 16.9787C49.552 16.227 49.1818 15.2128 49.1818 13.9362V5.82979H51.6803V13.6383C51.6803 14.3617 51.8867 14.9149 52.2996 15.2979C52.7267 15.6809 53.3033 15.8723 54.0293 15.8723C54.912 15.8723 55.6238 15.617 56.1648 15.1064C56.7201 14.5816 57.0048 13.9007 57.019 13.0638V5.82979H59.5175V17.8723H57.2112L57.1044 16.1064C56.7058 16.7305 56.1862 17.2199 55.5455 17.5745C54.9049 17.9149 54.2002 18.0851 53.4314 18.0851Z" fill="black"/>
<path d="M61.9972 17.8723V5.82979H64.2822L64.4103 7.59575C65.3784 6.2766 66.6739 5.61702 68.2969 5.61702C69.5212 5.61702 70.5178 5.96454 71.2865 6.65957C72.0553 7.35461 72.4397 8.40426 72.4397 9.80851V17.8723H69.9625V10.1064C69.9625 9.39716 69.7561 8.83688 69.3432 8.42553C68.9304 8.01418 68.3253 7.80851 67.5281 7.80851C66.7024 7.80851 65.9905 8.07092 65.3926 8.59574C64.8089 9.10638 64.5099 9.8156 64.4957 10.7234V17.8723H61.9972Z" fill="black"/>
<path d="M74.9168 17.8723V1.06383H77.4154V10.7872L82.4551 5.82979H85.5943L80.9176 10.234L86 17.8723H83.053L79.1878 11.8936L77.4154 13.5532V17.8723H74.9168Z" fill="black"/>
<rect width="122" height="19" transform="translate(106 1)" fill="black" fill-opacity="0.07"/>
<path d="M112.144 15V5.77H117.812V7.057H113.509V9.748H117.656V10.996H113.509V13.713H117.916V15H112.144ZM119.016 15L121.538 11.451L119.146 8.084H120.628L122.318 10.554L123.969 8.084H125.477L123.098 11.477L125.594 15H124.099L122.318 12.348L120.524 15H119.016ZM126.746 16.95V8.084H127.994L128.02 9.657L127.864 9.579C128.037 9.04167 128.319 8.63433 128.709 8.357C129.108 8.071 129.576 7.928 130.113 7.928C130.78 7.928 131.326 8.097 131.751 8.435C132.176 8.76433 132.492 9.202 132.7 9.748C132.908 10.294 133.012 10.892 133.012 11.542C133.012 12.192 132.908 12.79 132.7 13.336C132.492 13.882 132.176 14.324 131.751 14.662C131.326 14.9913 130.78 15.156 130.113 15.156C129.758 15.156 129.428 15.0997 129.125 14.987C128.822 14.8657 128.562 14.6967 128.345 14.48C128.137 14.2547 127.985 13.986 127.89 13.674L128.059 13.492V16.95H126.746ZM129.866 13.947C130.421 13.947 130.854 13.739 131.166 13.323C131.478 12.907 131.634 12.3133 131.634 11.542C131.634 10.7707 131.478 10.177 131.166 9.761C130.854 9.345 130.421 9.137 129.866 9.137C129.502 9.137 129.186 9.228 128.917 9.41C128.648 9.58333 128.436 9.84767 128.28 10.203C128.133 10.5583 128.059 11.0047 128.059 11.542C128.059 12.0793 128.133 12.5257 128.28 12.881C128.427 13.2363 128.635 13.505 128.904 13.687C129.181 13.8603 129.502 13.947 129.866 13.947ZM136.647 15V7.733C136.647 7.46433 136.569 7.25633 136.413 7.109C136.265 6.953 136.057 6.875 135.789 6.875H134.203V5.77H135.932C136.599 5.77 137.102 5.94333 137.44 6.29C137.786 6.628 137.96 7.13067 137.96 7.798V15H136.647ZM133.943 15V13.895H140.287V15H133.943ZM144.52 15.156C143.878 15.156 143.315 15.0087 142.83 14.714C142.353 14.4193 141.98 13.999 141.712 13.453C141.452 12.907 141.322 12.27 141.322 11.542C141.322 10.8053 141.452 10.1683 141.712 9.631C141.98 9.085 142.353 8.66467 142.83 8.37C143.315 8.07533 143.878 7.928 144.52 7.928C145.161 7.928 145.72 8.07533 146.197 8.37C146.682 8.66467 147.055 9.085 147.315 9.631C147.583 10.1683 147.718 10.8053 147.718 11.542C147.718 12.27 147.583 12.907 147.315 13.453C147.055 13.999 146.682 14.4193 146.197 14.714C145.72 15.0087 145.161 15.156 144.52 15.156ZM144.52 13.947C145.1 13.947 145.547 13.7347 145.859 13.31C146.179 12.8853 146.34 12.296 146.34 11.542C146.34 10.788 146.179 10.1987 145.859 9.774C145.547 9.34933 145.1 9.137 144.52 9.137C143.939 9.137 143.488 9.34933 143.168 9.774C142.856 10.1987 142.7 10.788 142.7 11.542C142.7 12.296 142.856 12.8853 143.168 13.31C143.488 13.7347 143.939 13.947 144.52 13.947ZM150.872 15V8.084H151.912L152.029 9.852L151.912 9.839C151.998 9.241 152.185 8.799 152.471 8.513C152.757 8.227 153.151 8.084 153.654 8.084H155.123V9.228H153.706C153.376 9.228 153.099 9.293 152.874 9.423C152.648 9.54433 152.475 9.73067 152.354 9.982C152.241 10.2247 152.185 10.528 152.185 10.892V15H150.872ZM149.117 15V13.895H154.343V15H149.117ZM149.117 9.189V8.084H151.613V9.189H149.117ZM159.421 15.156C158.771 15.156 158.203 15.0087 157.718 14.714C157.241 14.4193 156.868 13.999 156.6 13.453C156.34 12.907 156.21 12.27 156.21 11.542C156.21 10.814 156.34 10.1813 156.6 9.644C156.868 9.10667 157.237 8.68633 157.705 8.383C158.181 8.07967 158.74 7.928 159.382 7.928C159.997 7.928 160.539 8.07533 161.007 8.37C161.475 8.656 161.839 9.072 162.099 9.618C162.367 10.1553 162.502 10.8053 162.502 11.568V11.932H157.588C157.631 12.5907 157.813 13.0933 158.134 13.44C158.463 13.778 158.896 13.947 159.434 13.947C159.841 13.947 160.179 13.8517 160.448 13.661C160.716 13.4617 160.903 13.206 161.007 12.894L162.385 12.985C162.185 13.6437 161.826 14.1723 161.306 14.571C160.794 14.961 160.166 15.156 159.421 15.156ZM157.588 10.879H161.085C161.033 10.2897 160.851 9.852 160.539 9.566C160.235 9.28 159.85 9.137 159.382 9.137C158.896 9.137 158.498 9.28433 158.186 9.579C157.874 9.87367 157.674 10.307 157.588 10.879ZM165.681 15V8.084H166.721L166.838 9.852L166.721 9.839C166.808 9.241 166.994 8.799 167.28 8.513C167.566 8.227 167.961 8.084 168.463 8.084H169.932V9.228H168.515C168.186 9.228 167.909 9.293 167.683 9.423C167.458 9.54433 167.285 9.73067 167.163 9.982C167.051 10.2247 166.994 10.528 166.994 10.892V15H165.681ZM163.926 15V13.895H169.152V15H163.926ZM163.926 9.189V8.084H166.422V9.189H163.926ZM183.247 16.43H179.841V5.25H183.247V6.368H181.167V15.312H183.247V16.43ZM186.128 15V5.77H188.806C189.82 5.77 190.592 5.991 191.12 6.433C191.649 6.875 191.913 7.49033 191.913 8.279C191.913 8.66033 191.827 9.00267 191.653 9.306C191.48 9.60067 191.224 9.839 190.886 10.021C190.557 10.1943 190.163 10.2853 189.703 10.294V10.216C190.267 10.216 190.739 10.3113 191.12 10.502C191.51 10.684 191.805 10.944 192.004 11.282C192.204 11.6113 192.303 11.997 192.303 12.439C192.303 13.2537 192.022 13.8863 191.458 14.337C190.904 14.779 190.124 15 189.118 15H186.128ZM187.493 13.726H189.131C189.729 13.726 190.171 13.609 190.457 13.375C190.743 13.1323 190.886 12.7987 190.886 12.374C190.886 11.9233 190.735 11.5723 190.431 11.321C190.137 11.0697 189.703 10.944 189.131 10.944H187.493V13.726ZM187.493 9.683H188.832C189.404 9.683 189.825 9.57033 190.093 9.345C190.362 9.111 190.496 8.786 190.496 8.37C190.496 7.94533 190.362 7.62033 190.093 7.395C189.825 7.161 189.404 7.044 188.832 7.044H187.493V9.683ZM193.598 15V5.77H199.266V7.057H194.963V9.748H199.11V10.996H194.963V13.713H199.37V15H193.598ZM203.083 15V7.057H200.379V5.77H207.139V7.057H204.435V15H203.083ZM207.576 15L210.28 5.77H212.048L214.752 15H213.335L211.164 7.187L208.993 15H207.576ZM209.084 12.595L209.5 11.334H212.828L213.244 12.595H209.084ZM216.866 16.43V15.312H218.946V6.368H216.866V5.25H220.272V16.43H216.866Z" fill="black" fill-opacity="0.4"/>
</svg>
